# xmcd CD database file
#
# Track frame offsets:
#	182
#	12592
#	29757
#	37762
#	50302
#	63180
#	75467
#	86915
#	98447
#	116147
#	129422
#	134160
#	142925
#	163767
#	174632
#	194140
#	208167
#	225670
#	230905
#
# Disc length: 3246 seconds
#
# Revision: 2
# Processed by: cddbd v1.5.2PL0 Copyright (c) Steve Scherf et al.
# Submitted via: CDex 2.06
#
DISCID=110cac13
DTITLE=Tom Waits - Rain Dogs
DYEAR=1985
DGENRE=blues
TTITLE0=Singapore
TTITLE1=Clap Hands
TTITLE2=Cemetery Polka
TTITLE3=Jockey Full Of Bourbon
TTITLE4=Tango Till They're Sore
TTITLE5=Big Black Mariah
TTITLE6=Diamonds and Gold
TTITLE7=Hang Down Your Head
TTITLE8=Time
TTITLE9=Rain Dogs
TTITLE10=Midtown (Instrumental)
TTITLE11=9th and Hennepin
TTITLE12=Gun Street Girl
TTITLE13=Union Square
TTITLE14=Blind Love
TTITLE15=Walking Spanish
TTITLE16=Downtown Train
TTITLE17=Bride Of Rain Dog (Instrumental)
TTITLE18=Anywhere I Lay My Head
EXTD=YEAR: 1985
EXTT0=
EXTT1=
EXTT2=
EXTT3=
EXTT4=
EXTT5=
EXTT6=
EXTT7=
EXTT8=
EXTT9=
EXTT10=
EXTT11=
EXTT12=
EXTT13=
EXTT14=
EXTT15=
EXTT16=
EXTT17=
EXTT18=
PLAYORDER=
